Coordinates
version=1
nRows=11
nColumns=36
inDegrees=yes

Units are S.I. units (second, meters, Newtons, ...)
If the header above contains a line with 'inDegrees', this indicates whether rotational values are in degrees (yes) or radians (no).

endheader
time	pelvis_tilt	pelvis_list	pelvis_rotation	pelvis_tx	pelvis_ty	pelvis_tz	hip_flexion_r	hip_adduction_r	hip_rotation_r	knee_angle_r	knee_angle_r_beta	ankle_angle_r	subtalar_angle_r	mtp_angle_r	hip_flexion_l	hip_adduction_l	hip_rotation_l	knee_angle_l	knee_angle_l_beta	ankle_angle_l	subtalar_angle_l	mtp_angle_l	lumbar_extension	lumbar_bending	lumbar_rotation	arm_flex_r	arm_add_r	arm_rot_r	elbow_flex_r	pro_sup_r	arm_flex_l	arm_add_l	arm_rot_l	elbow_flex_l	pro_sup_l
      1.70833330	    -17.26412004	     -0.77059727	      5.40991731	     -0.64252645	      1.13907497	     -0.06216545	     22.40744702	      8.31703490	      9.17045815	     55.54482586	      0.96944009	     29.24945207	    -32.08056917	     -7.49999987	     25.29426493	      0.53205549	      7.77219781	     58.66284135	      1.02385973	     30.80877235	    -12.31084206	     -7.49999987	     -6.10356448	      0.29034717	      2.69318252	     63.95040316	    -16.79257332	      5.06250659	     87.55050475	     68.98025316	     49.00389318	    -15.62064562	      9.85964236	     84.16178608	     57.09933800
      1.71250000	    -16.39394884	     -0.34746013	      4.72071828	     -0.62939066	      1.15386535	     -0.06270134	     20.21217366	      7.75436211	      9.47798704	     53.82802225	      0.93947622	     27.75530069	    -31.47427213	     -7.49999987	     22.41917283	      0.54445444	      6.85729278	     56.34166937	      0.98334764	     29.53869168	    -11.57681591	     -7.49999987	     -6.49916991	      0.08208029	      3.59507102	     63.29617817	    -17.08072981	      4.80538910	     89.35326826	     73.50583839	     48.82250695	    -15.59175926	     10.58360320	     84.75696612	     56.89839082
      1.71666670	    -15.92225931	     -0.00189000	      4.65819433	     -0.62322304	      1.15398516	     -0.06716241	     19.21174130	      6.47448059	      8.43958063	     53.28830040	      0.93005629	     26.19935852	    -31.14568401	     -7.49999987	     20.49477714	      1.11941242	      6.84110997	     54.29764985	      0.94767277	     28.45821201	    -11.84091590	     -7.49999987	     -6.51901893	      0.07568853	      3.42770950	     63.15230026	    -17.46212239	      5.18502664	     91.13645171	     73.05226725	     47.78574892	    -16.00391503	     10.54895803	     86.43976421	     57.15955959
      1.72083330	    -15.09639815	     -0.22547417	      4.87811376	     -0.61034722	      1.16493102	     -0.06811389	     17.04523038	      5.81819905	      7.26858925	     50.78024922	      0.88628254	     24.91880235	    -29.40723767	     -7.49999987	     17.66629731	      0.95983125	      7.25282692	     51.60510040	      0.90067891	     27.06305676	    -11.84505988	     -7.49999987	     -6.61953807	      0.62387165	      3.04309968	     62.19987381	    -17.75881679	      5.35275001	     92.90554458	     73.39697723	     46.31629890	    -16.12102489	     10.40839978	     87.36535975	     57.31458976
      1.72500000	    -14.73773717	     -0.38768277	      5.43537639	     -0.60461751	      1.16780226	     -0.07328133	     15.97406061	      5.39623135	      6.47827813	     49.58375774	      0.86539983	     24.35165544	    -28.00270660	     -7.49999987	     16.25656011	      0.98132499	      7.69582301	     50.29236886	      0.87776743	     25.75438071	    -11.86181782	     -7.49999987	     -6.58514999	      1.30666314	      2.45990454	     61.80587534	    -18.46126970	      5.66358280	     95.41497452	     73.49759421	     44.73784806	    -16.04729260	     10.43747322	     88.70025802	     57.70011302
      1.72916670	    -13.87211456	     -0.78249908	      5.98040725	     -0.58588703	      1.17771960	     -0.07013023	     13.19028699	      5.38297127	      5.07544930	     47.12052823	      0.82240836	     21.81643554	    -26.99903789	     -7.49999987	     13.67195197	      0.39513581	      8.55057424	     48.21738814	      0.84155218	     23.82814555	    -11.74894505	     -7.49999987	     -6.76630446	      2.03414851	      1.78733673	     60.37583418	    -18.77895710	      5.57399273	     98.25500672	     73.99127977	     42.93643871	    -16.18141731	     10.20766963	     89.61610810	     58.02030573
      1.73333330	    -13.21184118	     -1.31044010	      6.30966022	     -0.57398551	      1.18064084	     -0.06218602	     11.09061307	      6.18173227	      3.84303193	     45.81888979	      0.79969049	     19.11695270	    -27.45261073	     -7.49999987	     11.31262429	     -0.81114075	      9.02791925	     46.32831610	      0.80858165	     21.44408468	    -11.01165061	     -7.49999987	     -6.45963637	      2.53816498	      1.33285657	     58.57256411	    -18.61123479	      5.55459316	    101.26602534	     74.61114663	     41.53940638	    -17.31296319	     10.53901617	     90.90931088	     58.48358541
      1.73750000	    -12.66783849	     -1.71090484	      7.12084572	     -0.56710216	      1.18792163	     -0.05907928	      9.02133807	      6.98443530	      3.24023034	     43.52516005	      0.75965735	     15.54400566	    -28.53241548	     -7.49999987	      9.95238860	     -2.04205334	      9.48547140	     44.72805659	      0.78065186	     18.35488561	    -11.93392308	     -7.49999987	     -5.95914225	      2.72394301	      1.18689376	     55.60292242	    -18.85052349	      3.91495068	    104.46591182	     78.77252022	     41.05946254	    -17.80799954	     11.60138810	     90.86835889	     61.33345887
      1.74166670	    -12.34870207	     -2.09067183	      7.81106136	     -0.56751228	      1.18862031	     -0.06027383	      8.65870540	      7.64784297	      2.83363391	     43.31677568	      0.75602036	     12.96302876	    -30.58602179	     -7.49999987	      9.60576528	     -2.83732003	      9.91517667	     44.07394616	      0.76923547	     16.88894612	    -12.29415383	     -7.49999987	     -5.77225471	      3.16444680	      0.34968264	     53.87487146	    -18.39978838	      2.93444866	    107.02586729	     78.52643158	     40.96561288	    -18.84056970	     11.61243252	     92.13685455	     61.66122130
      1.74583330	    -12.10571980	     -2.17947692	      8.26818233	     -0.56099687	      1.19276013	     -0.05672917	      8.37802228	      8.01156310	      2.33085294	     43.38257494	      0.75716877	     10.45641011	    -31.07297508	     -7.49999987	      9.41994026	     -3.36640435	      9.77763855	     43.99372036	      0.76783527	     15.90463952	    -11.79999775	     -7.49999987	     -5.53339311	      3.09188440	     -0.15173552	     51.97226336	    -17.89233321	      1.31458035	    109.55187263	     78.99186273	     40.93456153	    -19.43025426	     11.37210982	     92.76831961	     62.10853886
      1.75000000	    -11.95378101	     -2.12985462	      8.41276140	     -0.55525442	      1.19678517	     -0.06215042	      8.43367712	      7.99407324	      2.07048943	     43.92275937	      0.76659677	      8.08082051	    -29.91704433	     -7.49999987	      8.98952240	     -3.00722440	      9.87851665	     43.43575935	      0.75809701	     14.66628520	    -11.08608488	     -7.49999987	     -5.16112218	      3.06279248	     -0.25733364	     51.50984181	    -17.55132880	      1.16066419	    110.05630840	     79.12481684	     40.61242328	    -19.48729490	     11.53491923	     92.80907983	     62.24106158
